<?xml version="1.0" standalone="no"?>
<!DOCTYPE svg PUBLIC "-//W3C//DTD SVG 20010904//EN"
 "http://www.w3.org/TR/2001/REC-SVG-20010904/DTD/svg10.dtd">
<svg version="1.0" xmlns="http://www.w3.org/2000/svg"
 width="500.000000pt" height="500.000000pt" viewBox="0 0 500.000000 500.000000"
 preserveAspectRatio="xMidYMid meet">
<metadata>
Created by potrace 1.15, written by Peter Selinger 2001-2017
</metadata>
<g transform="translate(0.000000,500.000000) scale(0.100000,-0.100000)"
fill="#0072ff" stroke="none">
<path d="M1700 3335 c0 -41 2 -45 25 -45 l25 0 0 -378 c0 -414 5 -458 58 -533
79 -114 305 -132 392 -32 36 40 49 69 60 133 4 26 8 -98 9 -302 l1 -348 -25 0
c-23 0 -25 -4 -25 -45 l0 -45 95 0 95 0 0 45 c0 41 -2 45 -25 45 l-25 0 0 322
c0 177 2 319 4 317 2 -2 27 -167 57 -367 l53 -363 65 3 65 3 57 353 c32 195
60 356 63 359 3 4 6 -136 6 -310 l0 -317 -25 0 c-23 0 -25 -4 -25 -45 l0 -45
150 0 150 0 0 45 c0 41 -2 45 -25 45 l-25 0 0 425 0 425 25 0 c23 0 25 4 25
40 l0 40 -153 0 -154 0 -33 -235 c-19 -129 -37 -235 -40 -235 -3 0 -16 73 -28
163 -13 89 -28 195 -34 235 l-10 72 -129 0 -129 0 0 265 0 265 25 0 c23 0 25
4 25 45 l0 45 -105 0 -105 0 0 -45 c0 -45 0 -45 35 -45 l35 0 0 -392 c0 -216
-5 -411 -10 -433 -12 -52 -41 -75 -96 -75 -63 0 -92 29 -104 105 -6 33 -10
225 -10 428 l0 367 35 0 c35 0 35 0 35 45 l0 45 -165 0 -165 0 0 -45z"/>
</g>
</svg>
