<?xml version="1.0" encoding="iso-8859-1"?>
<!-- Uploaded to: SVG Repo, www.svgrepo.com, Generator: SVG Repo Mixer Tools -->
<!DOCTYPE svg PUBLIC "-//W3C//DTD SVG 1.1//EN" "http://www.w3.org/Graphics/SVG/1.1/DTD/svg11.dtd">
<svg fill="#000000" height="800px" width="800px" version="1.1" id="Capa_1" xmlns="http://www.w3.org/2000/svg" xmlns:xlink="http://www.w3.org/1999/xlink" 
	 viewBox="0 0 192.076 192.076" xml:space="preserve">
<path d="M189.121,8.421c-0.667-2.705-2.78-4.817-5.485-5.485c-0.482-0.119-12-2.917-27.365-2.917
	c-17.487,0-42.049,3.718-59.762,21.43c-6.563,6.563-12.942,14.306-18.911,22.411c-8.803,1.067-18.233,3.705-28.147,7.883
	C15.893,65.885,1.279,97.317,0.673,98.648c-0.941,2.068-0.894,4.451,0.128,6.48c1.022,2.029,2.909,3.486,5.131,3.96l36.523,7.804
	l32.709,32.709l7.804,36.523c0.475,2.222,1.931,4.108,3.96,5.131c1.06,0.534,2.216,0.802,3.374,0.802
	c1.059,0,2.118-0.224,3.106-0.673c1.331-0.606,32.763-15.219,46.905-48.778c4.675-11.094,6.955-20.487,7.896-28.157
	c8.1-5.966,15.838-12.341,22.397-18.9C202.336,63.82,189.675,10.668,189.121,8.421z M42.6,101.585l-23.463-5.013
	c5.998-9.043,17.756-23.259,36.139-31.006c3.563-1.501,6.884-2.697,9.973-3.658C54.801,78.235,46.65,93.616,42.6,101.585z
	 M126.492,136.78c-7.698,18.267-21.948,30.069-31.013,36.107l-5.007-23.43c7.971-4.051,23.36-12.207,39.694-22.66
	C129.196,129.896,127.993,133.218,126.492,136.78z M150.646,81.715c-5.383,5.383-12.54,8.347-20.152,8.347
	c-7.613,0-14.77-2.964-20.152-8.347c-11.112-11.112-11.112-29.193,0-40.305c5.383-5.383,12.54-8.348,20.152-8.348
	c7.612,0,14.77,2.964,20.152,8.348C161.759,52.523,161.759,70.603,150.646,81.715z M140.04,52.017
	c5.264,5.264,5.264,13.829,0,19.092c-2.55,2.549-5.94,3.954-9.546,3.954c-3.606,0-6.996-1.404-9.546-3.954
	c-5.264-5.264-5.264-13.829,0-19.092c2.55-2.55,5.94-3.954,9.546-3.954C134.1,48.063,137.49,49.467,140.04,52.017z"/>
</svg>